# xmcd CD database file
#
# Track frame offsets:
#	150
#	17035
#	38542
#	52846
#	72402
#	89095
#	105475
#	128598
#	141930
#	162012
#
# Disc length: 2374 seconds
#
# Revision: 2
# Processed by: cddbd v1.5.2PL0 Copyright (c) Steve Scherf et al.
# Submitted via: CDex 1.70beta2
#
DISCID=7b09440a
DTITLE=Jace Everett - Old New Borrowed Blues
DYEAR=2007
DGENRE=Country
TTITLE0=Your Man
TTITLE1=Angel Loves The Devil Outta Me
TTITLE2=Bad Things
TTITLE3=Between a Father and a Son
TTITLE4=Doin Nothing With You
TTITLE5=I Gotta Have It
TTITLE6=Greatest Story Never Told
TTITLE7=A Little Less Lonely
TTITLE8=Not So Far Away
TTITLE9=Turn It On
EXTD=YEAR: 2007
EXTT0=
EXTT1=
EXTT2=
EXTT3=
EXTT4=
EXTT5=
EXTT6=
EXTT7=
EXTT8=
EXTT9=
PLAYORDER=
